<?xml version="1.0" encoding="UTF-8"?>
<svg id="Camada_1" data-name="Camada 1" xmlns="http://www.w3.org/2000/svg" viewBox="0 0 103.08 57">
  <defs>
    <style>
      .cls-1 {
        fill: #3156a3;
      }

      .cls-2 {
        fill: #c71621;
      }

      .cls-3 {
        opacity: .21;
      }
    </style>
  </defs>
  <g>
    <ellipse class="cls-3" cx="81.05" cy="54.34" rx="12.88" ry="2.66"/>
    <path class="cls-1" d="M81.05,0c-12.15,0-22.03,9.88-22.03,22.03s9.88,22.03,22.03,22.03,22.03-9.88,22.03-22.03S93.19,0,81.05,0ZM88.24,33.04c-2.07,1.36-4.54,2.14-7.19,2.14s-5.12-.79-7.19-2.14c-3.59-2.35-5.96-6.41-5.96-11.01,0-7.25,5.9-13.15,13.15-13.15s13.15,5.9,13.15,13.15c0,4.6-2.37,8.66-5.96,11.01Z"/>
    <polygon class="cls-1" points="81.05 53.88 89.84 38.64 72.25 38.64 81.05 53.88"/>
    <rect class="cls-1" x="72.67" y="19.75" width="16.74" height="4.57"/>
    <rect class="cls-1" x="72.67" y="19.75" width="16.74" height="4.57" transform="translate(103.08 -59.02) rotate(90)"/>
  </g>
  <g>
    <ellipse class="cls-3" cx="22.31" cy="54.34" rx="12.88" ry="2.66"/>
    <path class="cls-2" d="M22.03,0C9.88,0,0,9.88,0,22.03s9.88,22.03,22.03,22.03,22.03-9.88,22.03-22.03S34.18,0,22.03,0ZM29.22,33.04c-2.07,1.36-4.54,2.14-7.19,2.14s-5.12-.79-7.19-2.14c-3.59-2.35-5.96-6.41-5.96-11.01,0-7.25,5.9-13.15,13.15-13.15s13.15,5.9,13.15,13.15c0,4.6-2.37,8.66-5.96,11.01Z"/>
    <polygon class="cls-2" points="22.03 53.88 30.83 38.64 13.23 38.64 22.03 53.88"/>
    <circle class="cls-2" cx="22.03" cy="20.68" r="4.57"/>
    <path class="cls-2" d="M29.22,28.73v2.07c-1.96,1.61-4.46,2.57-7.19,2.57s-5.23-.96-7.19-2.57v-2.07c0-1.36,1.1-2.47,2.47-2.47h9.44c1.36,0,2.47,1.1,2.47,2.47Z"/>
  </g>
</svg>